<svg width="280" height="68" viewBox="0 0 280 68" fill="none" xmlns="http://www.w3.org/2000/svg">
<path d="M259.88 40.376C259.88 44.1845 258.739 45.3075 255.663 46.2352C252.34 47.2117 246.437 47.8465 242.915 47.8465C238.748 47.8465 233.539 47.6023 229.124 46.577V42.1826H253.58V36.177H236.267C231.059 36.177 229.124 34.761 229.124 29.7808V27.1441C229.124 23.1892 230.314 22.0174 233.539 21.1874C236.813 20.3573 242.17 19.8202 245.693 19.8202C249.959 19.8202 255.068 20.162 259.483 21.1385V25.5329H235.424V30.562H252.737C257.945 30.562 259.88 31.9291 259.88 36.9582V40.376Z" fill="#041295"/>
<path d="M218.161 46.5748C213.101 47.553 207.991 47.8465 203.031 47.8465C198.07 47.8465 192.911 47.553 187.801 46.5748V21.1408C192.861 20.1626 198.02 19.8202 202.931 19.8202C207.892 19.8202 212.902 20.1137 217.962 21.1408V25.6896H195.044V30.7764H209.976V36.0588H195.044V42.0749H218.062V46.5748H218.161Z" fill="#041295"/>
<path d="M179.12 46.5452C174.556 47.5462 169.993 47.8465 165.578 47.8465C161.163 47.8465 156.499 47.5962 151.936 46.5452V19.8202H159.228V41.5906H179.12V46.5452Z" fill="#041295"/>
<path d="M143.205 46.8401C140.774 47.5446 137.55 47.7961 135.169 47.8465L123.908 24.8015H123.263L112.052 47.8465C109.671 47.7961 106.843 47.5446 104.412 46.8401L118.65 19.8202H128.819L143.205 46.8401Z" fill="#041295"/>
<path d="M128.372 39.3507C128.372 41.9385 126.239 43.9892 123.61 43.9892C120.981 43.9892 118.898 41.8897 118.898 39.3507C118.898 36.7629 121.031 34.7122 123.61 34.7122C126.239 34.7122 128.372 36.7629 128.372 39.3507Z" fill="#00BCDD"/>
<path d="M95.632 46.9056C93.3004 47.5989 90.8201 47.7969 88.3398 47.8465V36.3092H70.2333V47.8465C67.7529 47.7969 65.2726 47.5494 62.9411 46.9056V20.761C65.2726 20.0678 67.7529 19.8697 70.2333 19.8202V30.9614H88.3398V19.8202C90.8201 19.8697 93.3004 20.1173 95.632 20.761V46.9056Z" fill="#041295"/>
<path d="M52.7221 25.8651H39.9235V47.8465H32.6809V25.8651H19.8824V21.1691C25.3887 20.1699 30.9447 19.8202 36.3022 19.8202C41.6597 19.8202 47.2157 20.12 52.7221 21.1691V25.8651Z" fill="#041295"/>
</svg>
